# xmcd
#
# Track frame offsets:
# 150
# 26055
# 49826
# 75235
# 96591
#
# Disc length: 1582 seconds
#
# Revision: 0
# Processed by: cddbd v1.5.2PL0 Copyright (c) Steve Scherf et al.
# Submitted via: Audion 3.0.2 (http://www.panic.com/audion/)
#
DISCID=36062c05
DTITLE=Ron Kemp - Simple Life
DYEAR=1900
DGENRE=
TTITLE0=Call It Love
TTITLE1=The Struggle
TTITLE2=My Love Stands...Still
TTITLE3=Keepsake
TTITLE4=A Song For You
EXTD=
EXTT0=
EXTT1=
EXTT2=
EXTT3=
EXTT4=
PLAYORDER=
